# xmcd
#
# Track frame offsets:
#	150
#	21522
#	34321
#	50428
#	67597
#	85729
#	106363
#	121601
#	141243
#	157301
#	173461
#
# Disc length: 2657 seconds
#
# Revision: 1
# Processed by: cddbd v1.5.2PL0 Copyright (c) Steve Scherf et al.
# Submitted via: EZCDAudioConverter 8.0.7.1
#
DISCID=8a0a5f0b
DTITLE=Tift Merritt - Traveling Alone
DYEAR=2012
DGENRE=Country
TTITLE0=Traveling Alone
TTITLE1=Sweet Spot
TTITLE2=Drifted Apart
TTITLE3=Still Not Home
TTITLE4=Feeling Of Beauty
TTITLE5=Too Soon To Go
TTITLE6=Small Talk Relations
TTITLE7=Spring
TTITLE8=To Myself
TTITLE9=In The Way
TTITLE10=Marks
EXTD=
EXTT0=
EXTT1=
EXTT2=
EXTT3=
EXTT4=
EXTT5=
EXTT6=
EXTT7=
EXTT8=
EXTT9=
EXTT10=
PLAYORDER=
